# xmcd
#
# Track frame offsets: 
#        150
#        19869
#        44362
#        63321
#        76565
#        103391
#        108829
#        128724
#        133918
#        146457
#        174176
#
# Disc length: 2515 seconds
#
# Revision: 1
# Processed by: cddbd v1.5.2PL0 Copyright (c) Steve Scherf et al.
# Submitted via: ExactAudioCopy v0.95b3
#
DISCID=8c09d10b
DTITLE=Oystein Sevag - Caravan
DYEAR=2005
DGENRE=New Age
TTITLE0=Breaking Up
TTITLE1=Wind
TTITLE2=Casa Dei Mezzo
TTITLE3=Consolation
TTITLE4=Moving On
TTITLE5=The Well
TTITLE6=After All
TTITLE7=Fragment of the Big Picture
TTITLE8=The Stranger's Report
TTITLE9=Seen from Above
TTITLE10=The Code
EXTD=YEAR: 2005
EXTT0=
EXTT1=
EXTT2=
EXTT3=
EXTT4=
EXTT5=
EXTT6=
EXTT7=
EXTT8=
EXTT9=
EXTT10=
PLAYORDER=
